# xmcd
# Copyright (C) 1995-1998 Ti Kan
#
# Track frame offsets:
#       150
#       11047
#       19901
#       38635
#       49381
#       60479
#       72060
#       90465
#       101318
#       113922
#
# Disc length: 1634 seconds
#
# Revision: 0
# Processed by: cddbd v1.5.2PL0 Copyright (c) Steve Scherf et al.
# Submitted via: CD-Import v1.0
#
DISCID=7706600a
DTITLE=Catchpole - Ten Jolting Songs Of Tension
DYEAR=2004
DGENRE=
TTITLE0=Jukebox
TTITLE1=Man Without A Head
TTITLE2=Sweet Home
TTITLE3=Sunny
TTITLE4=Rock'n'roll Outfit
TTITLE5=Dude
TTITLE6=Pay Day
TTITLE7=Space Brains
TTITLE8=Soulrider
TTITLE9=Try To Kill
EXTD=
EXTT0=
EXTT1=
EXTT2=
EXTT3=
EXTT4=
EXTT5=
EXTT6=
EXTT7=
EXTT8=
EXTT9=
PLAYORDER=
